<svg width="256" height="256" viewBox="0 0 256 256" fill="none" xmlns="http://www.w3.org/2000/svg">
  <defs>
    <linearGradient id="bg" x1="32" y1="32" x2="224" y2="224" gradientUnits="userSpaceOnUse">
      <stop stop-color="#6366F1"/>
      <stop offset="1" stop-color="#06B6D4"/>
    </linearGradient>
    <linearGradient id="ring" x1="36" y1="36" x2="220" y2="220" gradientUnits="userSpaceOnUse">
      <stop stop-color="#FFFFFF" stop-opacity="0.45"/>
      <stop offset="1" stop-color="#FFFFFF" stop-opacity="0.15"/>
    </linearGradient>
  </defs>
  <rect x="20" y="20" width="216" height="216" rx="56" fill="url(#bg)"/>
  <rect x="24" y="24" width="208" height="208" rx="52" stroke="url(#ring)" stroke-width="8"/>
  <path d="M74 96C74 79.4315 87.4315 66 104 66H154C170.569 66 184 79.4315 184 96V160C184 176.569 170.569 190 154 190H104C87.4315 190 74 176.569 74 160V96Z" fill="#0B1020" fill-opacity="0.15"/>
  <path d="M76 169L113 128L76 87H103L140 128L103 169H76Z" fill="white"/>
  <path d="M181 96H140L117 128L140 160H181V169H138C130.405 169 123.31 165.233 118.995 158.949L104 138.031C99.8534 132.127 99.8534 123.873 104 117.969L118.995 97.0512C123.31 90.7674 130.405 87 138 87H181V96Z" fill="white"/>
</svg>
